<?xml version="1.0" encoding="UTF-8" standalone="no"?>
<!-- Created with Inkscape (http://www.inkscape.org/) -->

<svg
   width="1366"
   height="768"
   viewBox="0 0 1366 768"
   version="1.1"
   id="svg5"
   sodipodi:docname="landscape.svg"
   inkscape:version="1.2.1 (9c6d41e410, 2022-07-14)"
   inkscape:export-filename="diagram.svg"
   inkscape:export-xdpi="96"
   inkscape:export-ydpi="96"
   xmlns:inkscape="http://www.inkscape.org/namespaces/inkscape"
   xmlns:sodipodi="http://sodipodi.sourceforge.net/DTD/sodipodi-0.dtd"
   xmlns:xlink="http://www.w3.org/1999/xlink"
   xmlns="http://www.w3.org/2000/svg"
   xmlns:svg="http://www.w3.org/2000/svg">
  <sodipodi:namedview
     id="namedview7"
     pagecolor="#414141"
     bordercolor="#eeeeee"
     borderopacity="1"
     inkscape:showpageshadow="0"
     inkscape:pageopacity="0"
     inkscape:pagecheckerboard="false"
     inkscape:deskcolor="#505050"
     inkscape:document-units="mm"
     showgrid="true"
     inkscape:zoom="2.06"
     inkscape:cx="631.79612"
     inkscape:cy="400.97088"
     inkscape:window-width="3840"
     inkscape:window-height="2102"
     inkscape:window-x="0"
     inkscape:window-y="0"
     inkscape:window-maximized="1"
     inkscape:current-layer="layer1">
    <inkscape:grid
       type="xygrid"
       id="grid301"
       originx="0"
       originy="0"
       units="mm"
       spacingx="3.7795276"
       spacingy="3.7795276" />
  </sodipodi:namedview>
  <defs
     id="defs2">
    <linearGradient
       inkscape:collect="always"
       id="linearGradient5924">
      <stop
         style="stop-color:#f7f7f7;stop-opacity:1;"
         offset="0"
         id="stop5920" />
      <stop
         style="stop-color:#f7f7f7;stop-opacity:0.91326529;"
         offset="1"
         id="stop5922" />
    </linearGradient>
    <linearGradient
       inkscape:collect="always"
       id="linearGradient5760">
      <stop
         style="stop-color:#f7f7f7;stop-opacity:1;"
         offset="0"
         id="stop5756" />
      <stop
         style="stop-color:#f7f7f7;stop-opacity:0;"
         offset="1"
         id="stop5758" />
    </linearGradient>
    <linearGradient
       id="linearGradient5789"
       inkscape:swatch="solid">
      <stop
         style="stop-color:#000000;stop-opacity:1;"
         offset="0"
         id="stop5787" />
    </linearGradient>
    <linearGradient
       inkscape:collect="always"
       xlink:href="#linearGradient5760"
       id="linearGradient6090"
       x1="566.7712"
       y1="108.04706"
       x2="628.83316"
       y2="108.04706"
       gradientUnits="userSpaceOnUse" />
    <linearGradient
       inkscape:collect="always"
       xlink:href="#linearGradient5760"
       id="linearGradient6098"
       x1="796.67719"
       y1="84.709233"
       x2="889.93118"
       y2="84.709233"
       gradientUnits="userSpaceOnUse" />
    <linearGradient
       inkscape:collect="always"
       xlink:href="#linearGradient5760"
       id="linearGradient6106"
       x1="1122.7418"
       y1="127.79557"
       x2="1157.1024"
       y2="127.79557"
       gradientUnits="userSpaceOnUse" />
    <linearGradient
       inkscape:collect="always"
       xlink:href="#linearGradient5760"
       id="linearGradient6114"
       x1="1224"
       y1="542.24676"
       x2="1295.2272"
       y2="542.24676"
       gradientUnits="userSpaceOnUse" />
    <linearGradient
       inkscape:collect="always"
       xlink:href="#linearGradient5760"
       id="linearGradient6122"
       x1="921.40158"
       y1="555.21819"
       x2="1032.2769"
       y2="555.21819"
       gradientUnits="userSpaceOnUse" />
    <linearGradient
       inkscape:collect="always"
       xlink:href="#linearGradient5760"
       id="linearGradient6130"
       x1="781.55905"
       y1="494.31641"
       x2="826.2423"
       y2="494.31641"
       gradientUnits="userSpaceOnUse" />
    <linearGradient
       inkscape:collect="always"
       xlink:href="#linearGradient5760"
       id="linearGradient6138"
       x1="403.70672"
       y1="674.50874"
       x2="480.01141"
       y2="674.50874"
       gradientUnits="userSpaceOnUse" />
    <linearGradient
       inkscape:collect="always"
       xlink:href="#linearGradient5760"
       id="linearGradient6146"
       x1="302.98322"
       y1="546.11959"
       x2="347.98386"
       y2="546.11959"
       gradientUnits="userSpaceOnUse" />
    <linearGradient
       inkscape:collect="always"
       xlink:href="#linearGradient5760"
       id="linearGradient6154"
       x1="565.20488"
       y1="544.62438"
       x2="632.71756"
       y2="544.62438"
       gradientUnits="userSpaceOnUse" />
    <linearGradient
       inkscape:collect="always"
       xlink:href="#linearGradient5760"
       id="linearGradient6162"
       x1="498.33072"
       y1="460.73"
       x2="544.7313"
       y2="460.73"
       gradientUnits="userSpaceOnUse" />
    <linearGradient
       inkscape:collect="always"
       xlink:href="#linearGradient5760"
       id="linearGradient6170"
       x1="593.63739"
       y1="466.70287"
       x2="616.62995"
       y2="466.70287"
       gradientUnits="userSpaceOnUse" />
    <linearGradient
       inkscape:collect="always"
       xlink:href="#linearGradient5760"
       id="linearGradient6178"
       x1="824.14352"
       y1="289.46399"
       x2="907.65353"
       y2="289.46399"
       gradientUnits="userSpaceOnUse" />
    <linearGradient
       inkscape:collect="always"
       xlink:href="#linearGradient5760"
       id="linearGradient6186"
       x1="675.7323"
       y1="360.61474"
       x2="753.45561"
       y2="360.61474"
       gradientUnits="userSpaceOnUse" />
    <linearGradient
       inkscape:collect="always"
       xlink:href="#linearGradient5760"
       id="linearGradient6194"
       x1="334.37292"
       y1="152.9475"
       x2="416.31497"
       y2="152.9475"
       gradientUnits="userSpaceOnUse" />
    <linearGradient
       inkscape:collect="always"
       xlink:href="#linearGradient5760"
       id="linearGradient6202"
       x1="258.64935"
       y1="304.12859"
       x2="336.70866"
       y2="304.12859"
       gradientUnits="userSpaceOnUse" />
    <linearGradient
       inkscape:collect="always"
       xlink:href="#linearGradient5760"
       id="linearGradient6210"
       x1="969.67322"
       y1="486.04801"
       x2="1072.9699"
       y2="486.04801"
       gradientUnits="userSpaceOnUse" />
    <linearGradient
       inkscape:collect="always"
       xlink:href="#linearGradient5760"
       id="linearGradient6218"
       x1="294.34274"
       y1="542.85258"
       x2="306.56991"
       y2="542.85258"
       gradientUnits="userSpaceOnUse" />
    <linearGradient
       inkscape:collect="always"
       xlink:href="#linearGradient5760"
       id="linearGradient6226"
       x1="394.81231"
       y1="671.82456"
       x2="407.03949"
       y2="671.82456"
       gradientUnits="userSpaceOnUse" />
    <linearGradient
       inkscape:collect="always"
       xlink:href="#linearGradient5924"
       id="linearGradient6234"
       x1="556.61679"
       y1="544.07408"
       x2="568.84396"
       y2="544.07408"
       gradientUnits="userSpaceOnUse" />
  </defs>
  <g
     inkscape:label="Edges"
     inkscape:groupmode="layer"
     id="layer1">
    <g
       id="path610">
      <path
         id="path10981"
         style="color:#000000;fill:#ffffff;stroke-linecap:round;stroke:#080808;stroke-opacity:1;stroke-width:0.56692913;stroke-dasharray:none"
         d="M 234.38086 92.599609 A 1.889765 1.889765 0 0 0 234.19922 92.669922 A 1.889765 1.889765 0 0 0 234.01172 92.626953 A 1.889765 1.889765 0 0 0 233.54688 92.919922 A 1.889765 1.889765 0 0 0 232.95312 93.292969 A 1.889765 1.889765 0 0 0 232.78906 93.396484 A 1.889765 1.889765 0 0 0 232.66797 93.931641 A 1.889765 1.889765 0 0 0 232.44141 94.4375 C 227.04768 295.94561 278.9868 422.122 377.7832 494.53516 L 366.37305 496.42383 A 1.889765 1.889765 0 0 0 364.81641 498.5957 A 1.889765 1.889765 0 0 0 366.99023 500.15234 L 384.67383 497.22461 L 381.74609 479.53906 A 1.889765 1.889765 0 0 0 379.57227 477.98438 A 1.889765 1.889765 0 0 0 378.01758 480.15625 L 379.87695 491.38281 C 282.92009 420.24023 231.4898 296.71197 236.15625 98.089844 C 343.84477 174.31647 483.06519 273.72115 627.23828 288.72656 L 618.32617 296.09961 A 1.889765 1.889765 0 0 0 618.07617 298.75977 A 1.889765 1.889765 0 0 0 620.73633 299.01172 L 634.54688 287.58398 L 623.11914 273.77344 A 1.889765 1.889765 0 0 0 620.45898 273.52344 A 1.889765 1.889765 0 0 0 620.20703 276.18359 L 627.45898 284.94922 C 483.5594 269.8983 343.47007 169.40458 235.42188 92.945312 A 1.889765 1.889765 0 0 0 235.33008 92.923828 A 1.889765 1.889765 0 0 0 234.38086 92.599609 z " />
    </g>
    <g
       id="path614">
      <path
         id="path11013"
         style="color:#000000;fill:#ffffff;stroke-linecap:round;stroke:#080808;stroke-opacity:1;stroke-width:0.56692913;stroke-dasharray:none"
         d="M 608.02148 310.31055 C 569.61329 310.12385 536.8478 324.90056 515.23828 350.20312 C 486.96608 383.30703 477.95189 434.26184 499.66016 492.4668 L 489.08789 487.83984 A 1.889765 1.889765 0 0 0 486.59961 488.81445 A 1.889765 1.889765 0 0 0 487.57227 491.30273 L 503.99609 498.48633 L 511.17969 482.06445 A 1.889765 1.889765 0 0 0 510.20508 479.57617 A 1.889765 1.889765 0 0 0 507.7168 480.54883 L 503.14648 490.99609 C 481.87669 433.85685 490.84833 384.58272 518.11328 352.6582 C 545.92371 320.09501 592.88959 305.39511 647.16797 319.31055 A 1.889765 1.889765 0 0 0 649.46875 317.94922 A 1.889765 1.889765 0 0 0 648.10742 315.65039 C 634.25475 312.09896 620.82422 310.37278 608.02148 310.31055 z " />
    </g>
    <g
       id="path616">
      <path
         id="path11029"
         style="color:#000000;fill:#ffffff;stroke-linecap:round;stroke:#080808;stroke-opacity:1;stroke-width:0.56692913;stroke-dasharray:none"
         d="M 652.38867 321.63867 L 644.79492 337.875 A 1.889765 1.889765 0 0 0 645.70703 340.38867 A 1.889765 1.889765 0 0 0 648.21875 339.47656 L 653.02344 329.20117 C 667.25379 371.23678 664.78556 417.15302 644.27344 450.53906 C 623.18959 484.85566 583.26532 506.25263 521.85547 497.0293 A 1.889765 1.889765 0 0 0 519.70508 498.61719 A 1.889765 1.889765 0 0 0 521.29492 500.76562 C 583.80149 510.15369 625.6556 488.06252 647.49414 452.51758 C 668.78091 417.87071 671.15965 370.76795 656.51953 327.74414 L 667.02539 332.65625 A 1.889765 1.889765 0 0 0 669.53711 331.74414 A 1.889765 1.889765 0 0 0 668.625 329.23242 L 652.38867 321.63867 z " />
    </g>
    <g
       id="path618">
      <path
         id="path11045"
         style="color:#000000;fill:#ffffff;stroke-linecap:round;stroke:#080808;stroke-opacity:1;stroke-width:0.56692913;stroke-dasharray:none"
         d="M 763.05664 311.81836 A 1.889765 1.889765 0 0 0 761.77734 312.49023 A 1.889765 1.889765 0 0 0 762.01758 315.15234 C 828.24294 370.34015 836.59735 447.04582 826.18359 513.87695 L 819.54297 504.58008 A 1.889765 1.889765 0 0 0 816.90625 504.14062 A 1.889765 1.889765 0 0 0 816.4668 506.77734 L 826.88477 521.36328 L 841.47266 510.94531 A 1.889765 1.889765 0 0 0 841.91016 508.30859 A 1.889765 1.889765 0 0 0 839.27539 507.86914 L 829.89844 514.56836 C 840.44837 446.9512 831.90515 368.47305 764.4375 312.25 A 1.889765 1.889765 0 0 0 763.05664 311.81836 z " />
    </g>
    <g
       id="path620">
      <path
         id="path11061"
         style="color:#000000;fill:#ffffff;stroke-linecap:round;stroke:#080808;stroke-opacity:1;stroke-width:0.56692913;stroke-dasharray:none"
         d="M 1068.1094 531.02344 A 1.889765 1.889765 0 0 0 1066.7734 531.57617 A 1.889765 1.889765 0 0 0 1066.7734 534.25 L 1074.8867 542.36133 L 868.51562 542.36133 C 867.77888 542.33164 867.04836 542.29614 866.29688 542.2793 C 864.9058 542.2481 863.48941 542.24006 862.04688 542.25391 C 860.6299 542.26751 859.18632 542.30343 857.71875 542.36133 C 857.71809 542.36135 857.71746 542.3613 857.7168 542.36133 C 857.69097 542.36235 857.66647 542.36225 857.64062 542.36328 A 1.889765 1.889765 0 0 0 857.04688 542.63867 A 1.889765 1.889765 0 0 0 856.36133 542.95508 A 1.889765 1.889765 0 0 0 856.10352 543.58203 A 1.889765 1.889765 0 0 0 855.82617 544.25195 A 1.889765 1.889765 0 0 0 855.8418 544.29102 A 1.889765 1.889765 0 0 0 855.82812 544.32812 A 1.889765 1.889765 0 0 0 856.10352 544.92188 A 1.889765 1.889765 0 0 0 856.41992 545.60742 A 1.889765 1.889765 0 0 0 857.04688 545.86523 A 1.889765 1.889765 0 0 0 857.7168 546.14258 L 868.44922 546.14258 C 886.17646 546.85942 899.21453 551.34887 909.24414 558.14844 C 921.18769 566.24555 928.96969 577.68706 935.15234 590.25586 C 946.94382 614.22687 952.54264 642.3467 971.03711 657.12891 L 959.55859 659.32422 A 1.889765 1.889765 0 0 0 958.05664 661.53516 A 1.889765 1.889765 0 0 0 960.26758 663.03516 L 977.875 659.66992 L 974.50781 642.06445 A 1.889765 1.889765 0 0 0 972.29688 640.5625 A 1.889765 1.889765 0 0 0 970.79688 642.77344 L 972.89648 653.76562 C 956.35023 639.99693 950.50983 612.91149 938.54492 588.58789 C 932.20852 575.70653 924.04688 563.61703 911.36523 555.01953 C 905.93795 551.34011 899.68997 548.32265 892.45117 546.14258 L 1074.8867 546.14258 L 1066.7734 554.25391 A 1.889765 1.889765 0 0 0 1066.7734 556.92773 A 1.889765 1.889765 0 0 0 1069.4473 556.92773 L 1082.1211 544.25195 L 1069.4473 531.57617 A 1.889765 1.889765 0 0 0 1068.1094 531.02344 z " />
    </g>
    <g
       id="path624">
      <path
         id="path11093"
         style="color:#000000;fill:#ffffff;stroke-linecap:round;stroke:#080808;stroke-opacity:1;stroke-width:0.56692913;stroke-dasharray:none"
         d="M 1156.4297 566.19922 A 1.889765 1.889765 0 0 0 1154.4941 568.04297 C 1153.9562 589.66403 1139.2279 610.72082 1119.3027 626.80664 C 1100.5711 641.92893 1077.3199 652.57299 1057.7715 655.32422 L 1065.0273 646.61523 A 1.889765 1.889765 0 0 0 1064.7871 643.95312 A 1.889765 1.889765 0 0 0 1062.125 644.19531 L 1050.6504 657.96484 L 1064.4199 669.44141 A 1.889765 1.889765 0 0 0 1067.082 669.19922 A 1.889765 1.889765 0 0 0 1066.8398 666.53711 L 1057.9258 659.10938 C 1078.4896 656.32777 1102.3167 645.37486 1121.6758 629.74609 C 1142.1429 613.2228 1157.6928 591.39621 1158.2715 568.13672 A 1.889765 1.889765 0 0 0 1156.4297 566.19922 z " />
    </g>
    <g
       id="path626">
      <path
         id="path11109"
         style="color:#000000;fill:#ffffff;stroke-linecap:round;stroke:#080808;stroke-opacity:1;stroke-width:0.56692913;stroke-dasharray:none"
         d="M 951.99219 289.14453 A 1.889765 1.889765 0 0 0 950.72656 289.8457 C 918.76962 329.94136 854.77708 345.69705 782.47656 295.36719 L 793.70898 293.53516 A 1.889765 1.889765 0 0 0 795.27148 291.36523 A 1.889765 1.889765 0 0 0 793.10156 289.80469 L 775.41016 292.68945 L 778.29688 310.38086 A 1.889765 1.889765 0 0 0 780.46484 311.94336 A 1.889765 1.889765 0 0 0 782.02539 309.77344 L 780.16406 298.36133 C 853.71004 349.62086 920.46217 333.88088 953.68164 292.20117 A 1.889765 1.889765 0 0 0 953.38281 289.54492 A 1.889765 1.889765 0 0 0 951.99219 289.14453 z " />
    </g>
    <g
       id="path628">
      <path
         id="path11125"
         style="color:#000000;fill:#ffffff;stroke-linecap:round;stroke:#080808;stroke-opacity:1;stroke-width:0.56692913;stroke-dasharray:none"
         d="M 863.94141 251.33984 C 831.01418 252.05238 799.34324 265.0033 777.05469 285.86523 A 1.889765 1.889765 0 0 0 776.9668 288.53516 A 1.889765 1.889765 0 0 0 779.63867 288.62305 C 819.7776 251.05329 891.74714 239.83107 944.31836 282.54297 L 933.00977 283.38281 A 1.889765 1.889765 0 0 0 931.26562 285.40625 A 1.889765 1.889765 0 0 0 933.28906 287.15039 L 951.16602 285.82617 L 949.83984 267.95117 A 1.889765 1.889765 0 0 0 947.81641 266.20508 A 1.889765 1.889765 0 0 0 946.07031 268.23047 L 946.92773 279.78125 C 923.7599 260.87075 896.92806 252.11046 870.54102 251.36133 C 868.33711 251.29876 866.13655 251.29234 863.94141 251.33984 z " />
    </g>
    <g
       id="path2028">
      <path
         id="path11141"
         style="color:#000000;fill:#ffffff;stroke-linecap:round;stroke:#080808;stroke-opacity:1;stroke-width:0.56692913;stroke-dasharray:none"
         d="M 653.41992 88.830078 A 1.889765 1.889765 0 0 0 652.15039 89.523438 C 638.05848 107.01726 624.66614 130.82812 622.4707 160.45312 C 620.32791 189.3677 628.96355 223.72476 657.58398 262.82617 L 646.13477 261.21094 A 1.889765 1.889765 0 0 0 644 262.81836 A 1.889765 1.889765 0 0 0 645.60742 264.95312 L 663.35742 267.45703 L 665.85938 249.70703 A 1.889765 1.889765 0 0 0 664.25195 247.57227 A 1.889765 1.889765 0 0 0 662.11719 249.17969 L 660.5293 260.44922 C 632.40274 221.97404 624.171 188.65443 626.24023 160.73242 C 628.36298 132.08842 641.31871 108.99499 655.09375 91.894531 A 1.889765 1.889765 0 0 0 654.80664 89.236328 A 1.889765 1.889765 0 0 0 653.41992 88.830078 z " />
    </g>
    <g
       id="path2030">
      <path
         id="path11157"
         style="color:#000000;fill:#ffffff;stroke-linecap:round;stroke:#080808;stroke-opacity:1;stroke-width:0.56692913;stroke-dasharray:none"
         d="M 1152.1152 92.708984 A 1.889765 1.889765 0 0 0 1152.0762 92.744141 A 1.889765 1.889765 0 0 0 1152.0254 92.744141 A 1.889765 1.889765 0 0 0 1151.5449 93.228516 A 1.889765 1.889765 0 0 0 1151.0449 93.683594 C 1148.397 99.317175 1141.4624 105.24922 1131.043 111.07227 C 1120.6235 116.89529 1106.8061 122.6604 1090.6309 128.43945 C 1058.2801 139.99759 1016.4965 151.63667 973.21289 164.39062 C 929.9294 177.1446 885.13981 191.01514 846.67578 207.10547 C 809.77804 222.54057 778.71032 239.97111 760.30273 260.71484 L 759.18359 249.1543 A 1.889765 1.889765 0 0 0 757.12109 247.45508 A 1.889765 1.889765 0 0 0 755.42188 249.51758 L 757.14844 267.35938 L 774.99023 265.63281 A 1.889765 1.889765 0 0 0 776.68945 263.57031 A 1.889765 1.889765 0 0 0 774.62695 261.87109 L 763.35742 262.96289 C 781.10059 243.14026 811.63629 225.85987 848.13477 210.5918 C 886.34828 194.60626 931.03256 180.75935 974.28125 168.01562 C 1017.53 155.27192 1059.3382 143.63248 1091.9023 131.99805 C 1108.1845 126.18082 1122.1539 120.37119 1132.8867 114.37305 C 1141.8039 109.38958 1148.5018 104.30358 1152.4004 98.744141 C 1183.6981 175.74172 1181.7268 244.82191 1173.0762 312.16797 C 1164.4399 379.4011 1149.201 444.89158 1154.1914 514.4043 L 1145.375 506.91797 A 1.889765 1.889765 0 0 0 1142.7109 507.13672 A 1.889765 1.889765 0 0 0 1142.9297 509.79883 L 1156.5938 521.40039 L 1168.1953 507.73633 A 1.889765 1.889765 0 0 0 1167.9766 505.07227 A 1.889765 1.889765 0 0 0 1166.5996 504.62891 A 1.889765 1.889765 0 0 0 1165.3145 505.28906 L 1157.9512 513.96289 C 1153.0519 445.22991 1168.165 380.07792 1176.8262 312.65039 C 1185.6387 244.04468 1187.6478 173.02824 1154.5352 93.847656 C 1154.5226 93.817546 1154.5126 93.787926 1154.5 93.757812 A 1.889765 1.889765 0 0 0 1154.4531 93.710938 A 1.889765 1.889765 0 0 0 1153.5605 92.777344 A 1.889765 1.889765 0 0 0 1153.5098 92.775391 A 1.889765 1.889765 0 0 0 1153.4727 92.738281 A 1.889765 1.889765 0 0 0 1152.793 92.740234 A 1.889765 1.889765 0 0 0 1152.1152 92.708984 z " />
    </g>
    <g
       id="path2032">
      <path
         id="path11173"
         style="color:#000000;fill:#ffffff;stroke-linecap:round;stroke:#080808;stroke-opacity:1;stroke-width:0.56692913;stroke-dasharray:none"
         d="M 1093.2285 58.582031 A 1.889765 1.889765 0 0 0 1091.8926 59.136719 A 1.889765 1.889765 0 0 0 1091.8926 61.808594 L 1099.9844 69.900391 C 1082.0215 69.866124 1064.9641 69.615328 1048.7988 69.515625 C 996.9569 69.19588 953.3063 70.61233 911.0957 87.058594 C 869.68977 103.19135 829.88891 133.8538 785.32617 191.08789 C 797.5321 167.04788 804.44979 146.33695 805.875 129.20508 C 807.24225 112.76992 803.48435 99.459592 794.38867 90.021484 C 785.8667 81.178677 772.86906 75.854817 755.58203 74.029297 L 764.3418 66.503906 A 1.889765 1.889765 0 0 0 764.54492 63.837891 A 1.889765 1.889765 0 0 0 762.95703 63.185547 A 1.889765 1.889765 0 0 0 761.87891 63.636719 L 748.2832 75.316406 L 759.96289 88.914062 A 1.889765 1.889765 0 0 0 762.62695 89.115234 A 1.889765 1.889765 0 0 0 762.83008 86.451172 L 755.45508 77.865234 C 771.98586 79.661379 784.00603 84.694142 791.66797 92.644531 C 799.90066 101.18716 803.41417 113.18279 802.10742 128.89062 C 800.29472 150.68036 788.96409 179.36289 768.22461 214.04883 C 757.52927 229.00752 746.55397 245.38244 735.16992 263.56445 A 1.889765 1.889765 0 0 0 735.06445 264.19922 A 1.889765 1.889765 0 0 0 734.94336 264.92188 A 1.889765 1.889765 0 0 0 735.30273 265.51172 A 1.889765 1.889765 0 0 0 735.6582 266.09375 A 1.889765 1.889765 0 0 0 735.72852 266.11133 A 1.889765 1.889765 0 0 0 735.76953 266.16797 A 1.889765 1.889765 0 0 0 736.41602 266.27734 A 1.889765 1.889765 0 0 0 737.125 266.39648 A 1.889765 1.889765 0 0 0 737.73633 266.02344 A 1.889765 1.889765 0 0 0 738.29883 265.67969 C 751.31247 247.83941 762.46773 231.13048 771.76562 215.57812 C 822.92558 144.16577 866.81691 108.36638 912.4668 90.580078 C 966.83483 69.396979 1024.3595 73.533767 1100.0293 73.675781 L 1091.8926 81.8125 A 1.889765 1.889765 0 0 0 1091.8926 84.486328 A 1.889765 1.889765 0 0 0 1094.5645 84.486328 L 1107.2402 71.810547 L 1094.5645 59.136719 A 1.889765 1.889765 0 0 0 1093.2285 58.582031 z " />
    </g>
    <g
       id="path2034">
      <path
         id="path11189"
         style="color:#000000;fill:#ffffff;stroke-linecap:round;stroke-dasharray:5.99964082,5.99964082;stroke:#080808;stroke-opacity:1;stroke-width:0.56692913;stroke-dashoffset:0"
         d="M 234.13867 493.80859 A 1.322835 1.322835 0 0 0 233.26953 494.33008 A 1.322835 1.322835 0 0 0 233.54102 496.17969 C 236.39232 498.29822 239.30402 500.33871 242.27734 502.28711 A 1.322835 1.322835 0 0 0 244.10938 501.9043 A 1.322835 1.322835 0 0 0 243.72852 500.07422 C 240.80082 498.15572 237.9308 496.14571 235.11914 494.05664 A 1.322835 1.322835 0 0 0 234.13867 493.80859 z M 251.67383 505.44336 A 1.322835 1.322835 0 0 0 250.87109 506.06055 A 1.322835 1.322835 0 0 0 251.35938 507.86719 C 254.44133 509.6381 257.57784 511.31473 260.76172 512.89453 A 1.322835 1.322835 0 0 0 262.53516 512.29688 A 1.322835 1.322835 0 0 0 261.9375 510.52344 C 258.80158 508.96743 255.71287 507.31627 252.67773 505.57227 A 1.322835 1.322835 0 0 0 251.67383 505.44336 z M 270.4668 514.90234 A 1.322835 1.322835 0 0 0 269.74414 515.61328 A 1.322835 1.322835 0 0 0 270.44531 517.34766 C 273.71641 518.73701 277.02815 520.02731 280.375 521.2207 A 1.322835 1.322835 0 0 0 282.06641 520.41992 A 1.322835 1.322835 0 0 0 281.26367 518.72852 C 277.96535 517.55242 274.70295 516.28082 271.48047 514.91211 A 1.322835 1.322835 0 0 0 270.4668 514.90234 z M 291.25586 521.98242 A 1.322835 1.322835 0 0 0 289.61328 522.87695 A 1.322835 1.322835 0 0 0 290.50781 524.51953 C 293.9146 525.52623 297.3475 526.43731 300.80078 527.25977 A 1.322835 1.322835 0 0 0 302.39453 526.2793 A 1.322835 1.322835 0 0 0 301.41406 524.68555 C 298.00429 523.87345 294.61499 522.97504 291.25586 521.98242 z M 367.91992 523.20508 A 1.322835 1.322835 0 0 0 366.99805 523.62305 A 1.322835 1.322835 0 0 0 367.05859 525.49219 L 373.62305 531.63867 A 1.322835 1.322835 0 0 0 373.37891 532.28711 A 1.322835 1.322835 0 0 0 373.66602 532.92383 L 367.51953 539.48828 A 1.322835 1.322835 0 0 0 367.58203 541.35742 A 1.322835 1.322835 0 0 0 369.45117 541.29688 L 378.02734 532.13672 L 368.86719 523.56055 A 1.322835 1.322835 0 0 0 367.91992 523.20508 z M 311.70117 526.86133 A 1.322835 1.322835 0 0 0 310.16016 527.91992 A 1.322835 1.322835 0 0 0 311.2168 529.46289 C 314.70558 530.11325 318.20907 530.67881 321.72266 531.16602 A 1.322835 1.322835 0 0 0 323.21484 530.03711 A 1.322835 1.322835 0 0 0 322.08594 528.54688 C 318.61135 528.06509 315.148 527.50387 311.70117 526.86133 z M 332.54297 529.77344 A 1.322835 1.322835 0 0 0 331.09766 530.96289 A 1.322835 1.322835 0 0 0 332.28711 532.40625 C 335.81612 532.74768 339.3516 533.01762 342.88867 533.22461 A 1.322835 1.322835 0 0 0 344.28516 531.98047 A 1.322835 1.322835 0 0 0 343.04297 530.58398 C 339.53703 530.37882 336.03632 530.11142 332.54297 529.77344 z M 353.57227 531.01758 A 1.322835 1.322835 0 0 0 352.2168 532.30664 A 1.322835 1.322835 0 0 0 353.50586 533.66211 C 357.0464 533.75001 360.58699 533.78237 364.12695 533.76367 A 1.322835 1.322835 0 0 0 365.44336 532.43359 A 1.322835 1.322835 0 0 0 364.11328 531.11719 C 360.59826 531.13579 357.08467 531.10478 353.57227 531.01758 z " />
    </g>
    <g
       id="path2036">
      <path
         id="path11205"
         style="color:#000000;fill:#ffffff;stroke-linecap:round;stroke-dasharray:5.99964082,5.99964082;stroke:#080808;stroke-opacity:1;stroke-width:0.56692913;stroke-dashoffset:0"
         d="M 704.70508 481.91406 L 692.16992 482.44531 A 1.322835 1.322835 0 0 0 690.9043 483.82227 A 1.322835 1.322835 0 0 0 692.28125 485.08789 L 700.23438 484.75195 C 698.97224 486.05843 697.68839 487.3436 696.35938 488.58203 A 1.322835 1.322835 0 0 0 696.29492 490.45117 A 1.322835 1.322835 0 0 0 698.16406 490.51758 C 699.56666 489.21058 700.91987 487.85209 702.25 486.4707 L 702.5918 494.5625 A 1.322835 1.322835 0 0 0 703.96875 495.82812 A 1.322835 1.322835 0 0 0 705.23438 494.45117 L 704.70508 481.91406 z M 689.35156 495.05859 A 1.322835 1.322835 0 0 0 688.37305 495.31836 C 685.60361 497.43396 682.73094 499.41598 679.77539 501.26953 A 1.322835 1.322835 0 0 0 679.35742 503.09375 A 1.322835 1.322835 0 0 0 681.17969 503.51172 C 684.20096 501.61695 687.1414 499.58721 689.97852 497.41992 A 1.322835 1.322835 0 0 0 690.22656 495.56641 A 1.322835 1.322835 0 0 0 689.35156 495.05859 z M 671.68555 506.36328 A 1.322835 1.322835 0 0 0 670.67578 506.44922 C 667.57387 508.05314 664.40514 509.53496 661.1875 510.9043 A 1.322835 1.322835 0 0 0 660.48828 512.63867 A 1.322835 1.322835 0 0 0 662.22461 513.33789 C 665.49842 511.94465 668.72561 510.43734 671.89062 508.80078 A 1.322835 1.322835 0 0 0 672.45898 507.01758 A 1.322835 1.322835 0 0 0 671.68555 506.36328 z M 651.40039 514.69531 C 648.09807 515.8584 644.75992 516.92387 641.39453 517.90234 A 1.322835 1.322835 0 0 0 640.49219 519.54102 A 1.322835 1.322835 0 0 0 642.13281 520.44336 C 645.54185 519.4522 648.92717 518.37204 652.2793 517.19141 A 1.322835 1.322835 0 0 0 653.08789 515.50391 A 1.322835 1.322835 0 0 0 651.40039 514.69531 z M 631.22461 520.60156 C 627.81452 521.42614 624.38488 522.17635 620.94141 522.86719 A 1.322835 1.322835 0 0 0 619.9043 524.42578 A 1.322835 1.322835 0 0 0 621.46094 525.46094 C 624.93464 524.76403 628.39828 524.00744 631.8457 523.17383 A 1.322835 1.322835 0 0 0 632.82227 521.57617 A 1.322835 1.322835 0 0 0 631.22461 520.60156 z M 610.57422 524.77148 C 607.10798 525.35321 603.63122 525.8843 600.14844 526.375 A 1.322835 1.322835 0 0 0 599.02344 527.86914 A 1.322835 1.322835 0 0 0 600.51758 528.99414 C 604.02085 528.50055 607.52013 527.96488 611.01172 527.37891 A 1.322835 1.322835 0 0 0 612.09766 525.85547 A 1.322835 1.322835 0 0 0 610.57422 524.77148 z M 589.68164 527.73828 C 586.18742 528.15925 582.68825 528.54758 579.18555 528.91406 A 1.322835 1.322835 0 0 0 578.00781 530.36719 A 1.322835 1.322835 0 0 0 579.46094 531.54688 C 582.97502 531.17921 586.48778 530.78813 589.99805 530.36523 A 1.322835 1.322835 0 0 0 591.1543 528.89258 A 1.322835 1.322835 0 0 0 589.68164 527.73828 z M 568.66797 529.95508 C 565.15962 530.28391 561.64905 530.59627 558.13672 530.90234 A 1.322835 1.322835 0 0 0 556.93359 532.33594 A 1.322835 1.322835 0 0 0 558.36719 533.53906 C 561.88333 533.23266 565.40002 532.91744 568.91602 532.58789 A 1.322835 1.322835 0 0 0 570.10938 531.14844 A 1.322835 1.322835 0 0 0 568.66797 529.95508 z " />
    </g>
    <g
       id="path2038">
      <path
         id="path11221"
         style="color:#000000;fill:#ffffff;stroke-linecap:round;stroke:#080808;stroke-opacity:1;stroke-width:0.56692913;stroke-dasharray:none"
         d="M 486.55469 560.26367 A 1.889765 1.889765 0 0 0 485.96484 560.30469 L 468.49414 564.31445 L 472.50391 581.78516 A 1.889765 1.889765 0 0 0 474.76758 583.20508 A 1.889765 1.889765 0 0 0 476.1875 580.94141 L 473.66211 569.94531 C 490.85781 582.43552 497.97515 602.98043 494.70117 620.69531 C 491.23615 639.44396 476.50131 655.05469 448.88281 655.05469 C 415.49706 655.05469 399.60089 638.77265 396.89453 619.82812 C 394.18817 600.88361 405.04976 578.92629 427.05078 567.92578 A 1.889765 1.889765 0 0 0 427.89453 565.39062 A 1.889765 1.889765 0 0 0 426.80273 564.44336 A 1.889765 1.889765 0 0 0 425.35938 564.54688 C 402.00616 576.22349 390.18943 599.62088 393.15234 620.36133 C 396.11527 641.10178 414.23722 658.83398 448.88281 658.83398 C 477.95712 658.83398 494.66507 641.68905 498.41797 621.38281 C 501.99018 602.05422 494.14301 579.90322 475.4707 566.5918 L 486.81055 563.98828 A 1.889765 1.889765 0 0 0 488.22852 561.72461 A 1.889765 1.889765 0 0 0 486.55469 560.26367 z " />
    </g>
    <g
       id="path2596">
      <path
         id="path11269"
         style="color:#000000;fill:#ffffff;stroke-linecap:round;stroke:#080808;stroke-opacity:1;stroke-width:0.56692913;stroke-dasharray:none"
         d="M 1259.0488 505.70117 C 1258.2677 505.71256 1257.485 505.74116 1256.7012 505.78906 C 1241.6519 506.70879 1226.2273 514.43454 1215.4004 531.91797 A 1.889765 1.889765 0 0 0 1216.0137 534.51953 A 1.889765 1.889765 0 0 0 1218.6152 533.9082 C 1245.947 489.77269 1302.0469 512.41507 1302.0469 544.25195 C 1302.0469 553.25981 1298.9633 559.99964 1293.8398 564.84766 C 1288.7164 569.69566 1281.4481 572.64412 1273.0254 573.55469 C 1257.124 575.27376 1237.256 569.63338 1221.1035 556.57422 L 1232.4199 555.9082 A 1.889765 1.889765 0 0 0 1234.1953 553.91016 A 1.889765 1.889765 0 0 0 1232.1973 552.13477 L 1214.3047 553.1875 L 1215.3574 571.08203 A 1.889765 1.889765 0 0 0 1217.3535 572.85742 A 1.889765 1.889765 0 0 0 1219.1289 570.85938 L 1218.4473 559.2793 C 1235.4017 573.12469 1256.2368 579.17141 1273.4316 577.3125 C 1282.4892 576.3333 1290.5767 573.13942 1296.4375 567.59375 C 1302.2983 562.04808 1305.8262 554.1417 1305.8262 544.25195 C 1305.8262 522.33734 1283.2623 505.34805 1259.0488 505.70117 z " />
    </g>
    <g
       id="path2850">
      <path
         id="path11285"
         style="color:#000000;fill:#ffffff;stroke-linecap:round;stroke:#080808;stroke-opacity:1;stroke-width:0.56692913;stroke-dasharray:none"
         d="M 755.80469 312.20117 A 1.889765 1.889765 0 0 0 755.21289 312.21484 L 737.57617 315.42188 L 740.7832 333.05664 A 1.889765 1.889765 0 0 0 742.98047 334.57812 A 1.889765 1.889765 0 0 0 744.50195 332.38086 L 742.49414 321.34375 C 755.41257 332.17364 760.32288 349.77408 756.22461 365 C 751.82061 381.36174 737.30723 395.08573 710.32422 394.96094 L 710.32031 394.96094 L 710.31445 394.96094 C 696.56121 394.96094 687.14046 390.44755 680.88477 383.75 C 674.62906 377.05245 671.53012 368.03911 670.98047 358.94141 C 670.43081 349.8437 672.46213 340.70089 676.2207 333.99414 C 679.97928 327.28739 685.25943 323.15039 691.41797 323.15039 A 1.889765 1.889765 0 0 0 693.30664 321.25977 A 1.889765 1.889765 0 0 0 691.41797 319.36914 C 683.56078 319.36914 677.10814 324.68004 672.92383 332.14648 C 668.73951 339.61294 666.6169 349.37003 667.20898 359.16992 C 667.80106 368.96982 671.13863 378.85443 678.12109 386.33008 C 685.10356 393.80572 695.72131 398.74023 710.31445 398.74023 C 738.60759 398.86817 755.05729 383.88121 759.875 365.98242 C 764.41275 349.12374 758.88107 329.77902 744.4082 318.01953 L 755.88867 315.93359 A 1.889765 1.889765 0 0 0 757.41016 313.73633 A 1.889765 1.889765 0 0 0 755.80469 312.20117 z " />
    </g>
    <g
       id="path3022">
      <path
         id="path11301"
         style="color:#000000;fill:#ffffff;stroke-linecap:round;stroke:#080808;stroke-opacity:1;stroke-width:0.56692913;stroke-dasharray:none"
         d="M 767.09766 304.25391 A 1.889765 1.889765 0 0 0 765.73633 304.74414 A 1.889765 1.889765 0 0 0 765.60938 307.41406 C 808.85078 354.95592 876.39205 371.33012 942.6543 393.73047 C 1007.9007 415.78743 1071.855 443.52806 1111.2324 511.74805 L 1100.2832 508.61914 A 1.889765 1.889765 0 0 0 1097.9473 509.91797 A 1.889765 1.889765 0 0 0 1099.2461 512.25391 L 1116.4805 517.17773 L 1121.4062 499.94336 A 1.889765 1.889765 0 0 0 1120.1074 497.60547 A 1.889765 1.889765 0 0 0 1117.7715 498.9043 L 1114.5977 510.01758 C 1074.5672 440.54406 1009.3622 412.29007 943.86523 390.14844 C 877.39912 367.67917 810.61552 351.27817 768.40625 304.87109 A 1.889765 1.889765 0 0 0 767.09766 304.25391 z " />
    </g>
    <text
       xml:space="preserve"
       style="font-style:normal;font-variant:normal;font-weight:normal;font-stretch:normal;font-size:18.6667px;line-height:1.25;font-family:'Noto Sans';-inkscape-font-specification:'Noto Sans';letter-spacing:0px;word-spacing:0px;stroke:#000000;stroke-opacity:1;stroke-width:0.56692913;stroke-dasharray:none;fill:#ffffff;fill-opacity:1"
       x="566.31146"
       y="112.9004"
       id="text2754"><tspan
         sodipodi:role="line"
         id="tspan2752"
         x="566.31146"
         y="112.9004"
         style="stroke:#000000;stroke-opacity:1;stroke-width:0.56692913;stroke-dasharray:none;fill:#ffffff;fill-opacity:1">glslang</tspan></text>
    <text
       xml:space="preserve"
       style="font-style:normal;font-variant:normal;font-weight:normal;font-stretch:normal;font-size:18.6667px;line-height:1.25;font-family:'Noto Sans';-inkscape-font-specification:'Noto Sans';letter-spacing:0px;word-spacing:0px;stroke:#000000;stroke-opacity:1;stroke-width:0.56692913;stroke-dasharray:none;fill:#ffffff;fill-opacity:1"
       x="796.29211"
       y="89.347908"
       id="text2808"><tspan
         sodipodi:role="line"
         id="tspan2806"
         x="796.29211"
         y="89.347908"
         style="stroke:#000000;stroke-opacity:1;stroke-width:0.56692913;stroke-dasharray:none;fill:#ffffff;fill-opacity:1">spirv-cross</tspan></text>
    <text
       xml:space="preserve"
       style="font-style:normal;font-variant:normal;font-weight:normal;font-stretch:normal;font-size:18.6667px;line-height:1.25;font-family:'Noto Sans';-inkscape-font-specification:'Noto Sans';letter-spacing:0px;word-spacing:0px;stroke:#000000;stroke-opacity:1;stroke-width:0.56692913;stroke-dasharray:none;fill:#ffffff;fill-opacity:1"
       x="1121.498"
       y="134.45958"
       id="text2812"><tspan
         sodipodi:role="line"
         id="tspan2810"
         x="1121.498"
         y="134.45958"
         style="stroke:#000000;stroke-opacity:1;stroke-width:0.56692913;stroke-dasharray:none;fill:#ffffff;fill-opacity:1">DXC</tspan></text>
    <text
       xml:space="preserve"
       style="font-style:normal;font-variant:normal;font-weight:normal;font-stretch:normal;font-size:18.6667px;line-height:1.25;font-family:'Noto Sans';-inkscape-font-specification:'Noto Sans';letter-spacing:0px;word-spacing:0px;stroke:#000000;stroke-opacity:1;stroke-width:0.56692913;stroke-dasharray:none;fill:#ffffff;fill-opacity:1"
       x="1222.9802"
       y="547.1001"
       id="text2816"><tspan
         sodipodi:role="line"
         id="tspan2814"
         x="1222.9802"
         y="547.1001"
         style="stroke:#000000;stroke-opacity:1;stroke-width:0.56692913;stroke-dasharray:none;fill:#ffffff;fill-opacity:1">llvm-opt</tspan></text>
    <text
       xml:space="preserve"
       style="font-style:normal;font-variant:normal;font-weight:normal;font-stretch:normal;font-size:18.6667px;line-height:1.25;font-family:'Noto Sans';-inkscape-font-specification:'Noto Sans';letter-spacing:0px;word-spacing:0px;stroke:#000000;stroke-opacity:1;stroke-width:0.56692913;stroke-dasharray:none;fill:#ffffff;fill-opacity:1"
       x="920.15784"
       y="562.2182"
       id="text2820"><tspan
         sodipodi:role="line"
         id="tspan2818"
         x="920.15784"
         y="562.2182"
         style="stroke:#000000;stroke-opacity:1;stroke-width:0.56692913;stroke-dasharray:none;fill:#ffffff;fill-opacity:1">Mesa drivers</tspan></text>
    <text
       xml:space="preserve"
       style="font-style:normal;font-variant:normal;font-weight:normal;font-stretch:normal;font-size:18.6667px;line-height:1.25;font-family:'Noto Sans';-inkscape-font-specification:'Noto Sans';letter-spacing:0px;word-spacing:0px;stroke:#000000;stroke-opacity:1;stroke-width:0.56692913;stroke-dasharray:none;fill:#ffffff;fill-opacity:1"
       x="780.31531"
       y="500.88708"
       id="text2824"><tspan
         sodipodi:role="line"
         id="tspan2822"
         x="780.31531"
         y="500.88708"
         style="stroke:#000000;stroke-opacity:1;stroke-width:0.56692913;stroke-dasharray:none;fill:#ffffff;fill-opacity:1">Mesa</tspan></text>
    <text
       xml:space="preserve"
       style="font-style:italic;font-variant:normal;font-weight:normal;font-stretch:normal;font-size:18.6667px;line-height:1.25;font-family:'Noto Sans';-inkscape-font-specification:'Noto Sans Italic';letter-spacing:0px;word-spacing:0px;stroke:#000000;stroke-opacity:1;stroke-width:0.56692913;stroke-dasharray:none;fill:#ffffff;fill-opacity:1"
       x="403.75098"
       y="679.40875"
       id="text2828"><tspan
         sodipodi:role="line"
         id="tspan2826"
         x="403.75098"
         y="679.40875"
         style="stroke:#000000;stroke-opacity:1;stroke-width:0.56692913;stroke-dasharray:none;fill:#ffffff;fill-opacity:1">ransform</tspan></text>
    <text
       xml:space="preserve"
       style="font-style:italic;font-variant:normal;font-weight:normal;font-stretch:normal;font-size:18.6667px;line-height:1.25;font-family:'Noto Sans';-inkscape-font-specification:'Noto Sans Italic';letter-spacing:0px;word-spacing:0px;stroke:#000000;stroke-opacity:1;stroke-width:0.56692913;stroke-dasharray:none;fill:#ffffff;fill-opacity:1"
       x="302.65414"
       y="550.02094"
       id="text2832"><tspan
         sodipodi:role="line"
         id="tspan2830"
         x="302.65414"
         y="550.02094"
         style="stroke:#000000;stroke-opacity:1;stroke-width:0.56692913;stroke-dasharray:none;fill:#ffffff;fill-opacity:1">arget</tspan></text>
    <text
       xml:space="preserve"
       style="font-style:italic;font-variant:normal;font-weight:normal;font-stretch:normal;font-size:18.6667px;line-height:1.25;font-family:'Noto Sans';-inkscape-font-specification:'Noto Sans Italic';letter-spacing:0px;word-spacing:0px;stroke:#000000;stroke-opacity:1;stroke-width:0.56692913;stroke-dasharray:none;fill:#ffffff;fill-opacity:1"
       x="565.24915"
       y="551.62439"
       id="text2836"><tspan
         sodipodi:role="line"
         id="tspan2834"
         x="565.24915"
         y="551.62439"
         style="stroke:#000000;stroke-opacity:1;stroke-width:0.56692913;stroke-dasharray:none;fill:#ffffff;fill-opacity:1">ranslate</tspan></text>
    <text
       xml:space="preserve"
       style="font-style:italic;font-variant:normal;font-weight:normal;font-stretch:normal;font-size:18.6667px;line-height:1.25;font-family:'Noto Sans';-inkscape-font-specification:'Noto Sans Italic';letter-spacing:0px;word-spacing:0px;stroke:#000000;stroke-opacity:1;stroke-width:0.56692913;stroke-dasharray:none;fill:#ffffff;fill-opacity:1"
       x="498.39365"
       y="467.73001"
       id="text2840"><tspan
         sodipodi:role="line"
         id="tspan2838"
         x="498.39365"
         y="467.73001"
         style="stroke:#000000;stroke-opacity:1;stroke-width:0.56692913;stroke-dasharray:none;fill:#ffffff;fill-opacity:1">lower</tspan></text>
    <text
       xml:space="preserve"
       style="font-style:italic;font-variant:normal;font-weight:normal;font-stretch:normal;font-size:18.6667px;line-height:1.25;font-family:'Noto Sans';-inkscape-font-specification:'Noto Sans Italic';letter-spacing:0px;word-spacing:0px;stroke:#000000;stroke-opacity:1;stroke-width:0.56692913;stroke-dasharray:none;fill:#ffffff;fill-opacity:1"
       x="593.70032"
       y="471.60287"
       id="text2844"><tspan
         sodipodi:role="line"
         id="tspan2842"
         x="593.70032"
         y="471.60287"
         style="stroke:#000000;stroke-opacity:1;stroke-width:0.56692913;stroke-dasharray:none;fill:#ffffff;fill-opacity:1">lift</tspan></text>
    <text
       xml:space="preserve"
       style="font-style:normal;font-variant:normal;font-weight:normal;font-stretch:normal;font-size:18.6667px;line-height:1.25;font-family:'Noto Sans';-inkscape-font-specification:'Noto Sans';letter-spacing:0px;word-spacing:0px;stroke:#000000;stroke-opacity:1;stroke-width:0.56692913;stroke-dasharray:none;fill:#ffffff;fill-opacity:1"
       x="823.12378"
       y="294.10266"
       id="text2848"><tspan
         sodipodi:role="line"
         id="tspan2846"
         x="823.12378"
         y="294.10266"
         style="stroke:#000000;stroke-opacity:1;stroke-width:0.56692913;stroke-dasharray:none;fill:#ffffff;fill-opacity:1">naga/Tint</tspan></text>
    <text
       xml:space="preserve"
       style="font-style:normal;font-variant:normal;font-weight:normal;font-stretch:normal;font-size:18.6667px;line-height:1.25;font-family:'Noto Sans';-inkscape-font-specification:'Noto Sans';letter-spacing:0px;word-spacing:0px;stroke-width:0.56692913;stroke-dasharray:none;stroke:#000000;stroke-opacity:1;fill:#ffffff;fill-opacity:1"
       x="675.34723"
       y="365.25342"
       id="text2890"><tspan
         sodipodi:role="line"
         id="tspan2888"
         x="675.34723"
         y="365.25342"
         style="stroke:#000000;stroke-opacity:1;stroke-width:0.56692913;stroke-dasharray:none;fill:#ffffff;fill-opacity:1">spirv-opt</tspan></text>
    <text
       xml:space="preserve"
       style="font-size:18.6667px;line-height:1.25;font-family:'Noto Sans';-inkscape-font-specification:'Noto Sans';letter-spacing:0px;word-spacing:0px;stroke:#000000;stroke-opacity:1;stroke-width:0.56692913;stroke-dasharray:none;fill:#ffffff;fill-opacity:1"
       x="416.49469"
       y="145.79816"
       id="text3110"><tspan
         sodipodi:role="line"
         id="tspan3108"
         x="416.49469"
         y="145.79816"
         style="font-size:18.6667px;text-align:end;text-anchor:end;stroke:#000000;stroke-opacity:1;stroke-width:0.56692913;stroke-dasharray:none;fill:#ffffff;fill-opacity:1">Rust-GPU</tspan><tspan
         sodipodi:role="line"
         x="416.49469"
         y="169.13153"
         id="tspan3112"
         style="font-size:18.6667px;text-align:end;text-anchor:end;stroke:#000000;stroke-opacity:1;stroke-width:0.56692913;stroke-dasharray:none;fill:#ffffff;fill-opacity:1">(today)</tspan></text>
    <text
       xml:space="preserve"
       style="font-size:18.6667px;line-height:1.25;font-family:'Noto Sans';-inkscape-font-specification:'Noto Sans';text-align:end;letter-spacing:0px;word-spacing:0px;text-anchor:end;stroke:#000000;stroke-opacity:1;stroke-width:0.56692913;stroke-dasharray:none;fill:#ffffff;fill-opacity:1"
       x="335.9364"
       y="296.97925"
       id="text3116"><tspan
         sodipodi:role="line"
         id="tspan3114"
         x="335.9364"
         y="296.97925"
         style="font-style:italic;font-variant:normal;font-weight:normal;font-stretch:normal;font-family:'Noto Sans';-inkscape-font-specification:'Noto Sans Italic';stroke:#000000;stroke-opacity:1;stroke-width:0.56692913;stroke-dasharray:none;fill:#ffffff;fill-opacity:1">Rust-GPU</tspan><tspan
         sodipodi:role="line"
         x="335.9364"
         y="320.31262"
         id="tspan3118"
         style="font-style:italic;font-variant:normal;font-weight:normal;font-stretch:normal;font-family:'Noto Sans';-inkscape-font-specification:'Noto Sans Italic';stroke:#000000;stroke-opacity:1;stroke-width:0.56692913;stroke-dasharray:none;fill:#ffffff;fill-opacity:1">(future)</tspan></text>
    <text
       xml:space="preserve"
       style="font-size:18.6667px;line-height:1.25;font-family:'Noto Sans';-inkscape-font-specification:'Noto Sans';text-align:end;letter-spacing:0px;word-spacing:0px;text-anchor:end;stroke:#000000;stroke-opacity:1;stroke-width:0.56692913;stroke-dasharray:none;fill:#ffffff;fill-opacity:1"
       x="1073.1497"
       y="480"
       id="text3594"><tspan
         sodipodi:role="line"
         id="tspan3592"
         x="1073.1497"
         y="480"
         style="stroke:#000000;stroke-opacity:1;stroke-width:0.56692913;stroke-dasharray:none;fill:#ffffff;fill-opacity:1">GPU drivers</tspan><tspan
         sodipodi:role="line"
         x="1073.1497"
         y="503.33337"
         id="tspan3596"
         style="stroke:#000000;stroke-opacity:1;stroke-width:0.56692913;stroke-dasharray:none;fill:#ffffff;fill-opacity:1">(other)</tspan></text>
    <text
       xml:space="preserve"
       style="font-style:italic;font-variant:normal;font-weight:bold;font-stretch:normal;font-size:21.3333px;line-height:1.25;font-family:'Noto Sans';-inkscape-font-specification:'Noto Sans Bold Italic';letter-spacing:0px;word-spacing:0px;stroke:#000000;stroke-opacity:1;stroke-width:0.56692913;stroke-dasharray:none;fill:#ffffff;fill-opacity:1"
       x="293.16034"
       y="550.46857"
       id="text3670"><tspan
         sodipodi:role="line"
         id="tspan3668"
         x="293.16034"
         y="550.46857"
         style="stroke:#000000;stroke-opacity:1;stroke-width:0.56692913;stroke-dasharray:none;fill:#ffffff;fill-opacity:1">T</tspan></text>
    <text
       xml:space="preserve"
       style="font-style:italic;font-variant:normal;font-weight:bold;font-stretch:normal;font-size:21.3333px;line-height:1.25;font-family:'Noto Sans';-inkscape-font-specification:'Noto Sans Bold Italic';letter-spacing:0px;word-spacing:0px;stroke:#000000;stroke-opacity:1;stroke-width:0.56692913;stroke-dasharray:none;fill:#ffffff;fill-opacity:1"
       x="393.62991"
       y="679.44055"
       id="text3670-3"><tspan
         sodipodi:role="line"
         id="tspan3668-6"
         x="393.62991"
         y="679.44055"
         style="stroke:#000000;stroke-opacity:1;stroke-width:0.56692913;stroke-dasharray:none;fill:#ffffff;fill-opacity:1">T</tspan></text>
    <text
       xml:space="preserve"
       style="font-style:italic;font-variant:normal;font-weight:bold;font-stretch:normal;font-size:21.3333px;line-height:1.25;font-family:'Noto Sans';-inkscape-font-specification:'Noto Sans Bold Italic';letter-spacing:0px;word-spacing:0px;stroke:#000000;stroke-opacity:1;stroke-width:0.56692913;stroke-dasharray:none;fill:#ffffff;fill-opacity:1"
       x="555.43439"
       y="551.69006"
       id="text3670-7"><tspan
         sodipodi:role="line"
         id="tspan3668-5"
         x="555.43439"
         y="551.69006"
         style="stroke:#000000;stroke-opacity:1;stroke-width:0.56692913;stroke-dasharray:none;fill:#ffffff;fill-opacity:1">T</tspan></text>
  </g>
  <g
     inkscape:groupmode="layer"
     id="layer2"
     inkscape:label="Nodes">
    <text
       xml:space="preserve"
       style="font-style:normal;font-variant:normal;font-weight:bold;font-stretch:normal;font-size:40px;line-height:1.25;font-family:'Noto Sans';-inkscape-font-specification:'Noto Sans, Bold';font-variant-ligatures:normal;font-variant-caps:normal;font-variant-numeric:normal;font-variant-east-asian:normal;letter-spacing:0px;word-spacing:0px;fill:#ff4040;fill-opacity:1;stroke:#000000;stroke-opacity:1"
       x="190.54507"
       y="85.752914"
       id="text113"><tspan
         sodipodi:role="line"
         id="tspan111"
         x="190.54507"
         y="85.752914">Rust</tspan></text>
    <text
       xml:space="preserve"
       style="font-style:normal;font-variant:normal;font-weight:bold;font-stretch:normal;font-size:40px;line-height:1.25;font-family:'Noto Sans';-inkscape-font-specification:'Noto Sans, Bold';font-variant-ligatures:normal;font-variant-caps:normal;font-variant-numeric:normal;font-variant-east-asian:normal;letter-spacing:0px;word-spacing:0px;fill:#ff4040;fill-opacity:1;stroke:#000000;stroke-opacity:1"
       x="649.49066"
       y="85.652916"
       id="text117"><tspan
         sodipodi:role="line"
         id="tspan115"
         x="649.49066"
         y="85.652916">GLSL</tspan></text>
    <text
       xml:space="preserve"
       style="font-style:normal;font-variant:normal;font-weight:bold;font-stretch:normal;font-size:40px;line-height:1.25;font-family:'Noto Sans';-inkscape-font-specification:'Noto Sans, Bold';font-variant-ligatures:normal;font-variant-caps:normal;font-variant-numeric:normal;font-variant-east-asian:normal;letter-spacing:0px;word-spacing:0px;fill:#ff4040;fill-opacity:1;stroke:#000000;stroke-opacity:1"
       x="1111.8606"
       y="86.152916"
       id="text171"><tspan
         sodipodi:role="line"
         id="tspan169"
         x="1111.8606"
         y="86.152916">HLSL</tspan></text>
    <text
       xml:space="preserve"
       style="font-style:normal;font-variant:normal;font-weight:bold;font-stretch:normal;font-size:40px;line-height:1.25;font-family:'Noto Sans';-inkscape-font-specification:'Noto Sans, Bold';font-variant-ligatures:normal;font-variant-caps:normal;font-variant-numeric:normal;font-variant-east-asian:normal;letter-spacing:0px;word-spacing:0px;fill:#39e539;fill-opacity:1;stroke:#000000;stroke-opacity:1"
       x="640.44348"
       y="305.74173"
       id="text175"><tspan
         sodipodi:role="line"
         id="tspan173"
         x="640.44348"
         y="305.74173">SPIR-V</tspan></text>
    <text
       xml:space="preserve"
       style="font-style:normal;font-variant:normal;font-weight:bold;font-stretch:normal;font-size:40px;line-height:1.25;font-family:'Noto Sans';-inkscape-font-specification:'Noto Sans, Bold';font-variant-ligatures:normal;font-variant-caps:normal;font-variant-numeric:normal;font-variant-east-asian:normal;letter-spacing:0px;word-spacing:0px;fill:#39e539;fill-opacity:1;stroke:#000000;stroke-opacity:1"
       x="955.98425"
       y="298.58267"
       id="text179"><tspan
         sodipodi:role="line"
         id="tspan177"
         x="955.98425"
         y="298.58267">WGSL</tspan></text>
    <text
       xml:space="preserve"
       style="font-style:normal;font-variant:normal;font-weight:bold;font-stretch:normal;font-size:53.3333px;line-height:1.25;font-family:'Noto Sans';-inkscape-font-specification:'Noto Sans, Bold';font-variant-ligatures:normal;font-variant-caps:normal;font-variant-numeric:normal;font-variant-east-asian:normal;letter-spacing:0px;word-spacing:0px;fill:#409eff;fill-opacity:1;stroke:#000000;stroke-opacity:1"
       x="384.38132"
       y="548.15662"
       id="text183"><tspan
         sodipodi:role="line"
         id="tspan181"
         x="384.38132"
         y="548.15662">SPIR-T</tspan></text>
    <text
       xml:space="preserve"
       style="font-style:normal;font-variant:normal;font-weight:bold;font-stretch:normal;font-size:40px;line-height:1.25;font-family:'Noto Sans';-inkscape-font-specification:'Noto Sans, Bold';font-variant-ligatures:normal;font-variant-caps:normal;font-variant-numeric:normal;font-variant-east-asian:normal;letter-spacing:0px;word-spacing:0px;fill:#409eff;fill-opacity:1;stroke:#000000;stroke-opacity:1"
       x="778.526"
       y="555.59058"
       id="text187"><tspan
         sodipodi:role="line"
         id="tspan185"
         x="778.526"
         y="555.59058">NIR</tspan></text>
    <text
       xml:space="preserve"
       style="font-style:normal;font-variant:normal;font-weight:bold;font-stretch:normal;font-size:40px;line-height:1.25;font-family:'Noto Sans';-inkscape-font-specification:'Noto Sans, Bold';font-variant-ligatures:normal;font-variant-caps:normal;font-variant-numeric:normal;font-variant-east-asian:normal;letter-spacing:0px;word-spacing:0px;fill:#409eff;fill-opacity:1;stroke:#000000;stroke-opacity:1"
       x="1097.1335"
       y="555.59058"
       id="text191"><tspan
         sodipodi:role="line"
         id="tspan189"
         x="1097.1335"
         y="555.59058">LLVM</tspan></text>
    <text
       xml:space="preserve"
       style="font-style:normal;font-variant:normal;font-weight:normal;font-stretch:normal;font-size:26.6667px;line-height:1.25;font-family:'Noto Sans';-inkscape-font-specification:'Noto Sans';text-align:center;letter-spacing:0px;word-spacing:0px;text-anchor:middle;fill:#3a72a9;fill-opacity:1;stroke:#000000;stroke-opacity:1;stroke-width:1;stroke-dasharray:none"
       x="1016.4567"
       y="668.97638"
       id="text7172"><tspan
         sodipodi:role="line"
         id="tspan7170"
         x="1016.4567"
         y="668.97638"
         style="font-size:26.6667px;fill:#3a72a9;fill-opacity:1;stroke:#000000;stroke-opacity:1;stroke-width:1;stroke-dasharray:none">GPU</tspan><tspan
         sodipodi:role="line"
         x="1016.4567"
         y="702.30975"
         id="tspan7174"
         style="font-size:26.6667px;fill:#3a72a9;fill-opacity:1;stroke:#000000;stroke-opacity:1;stroke-width:1;stroke-dasharray:none">machine code</tspan></text>
    <text
       xml:space="preserve"
       style="font-size:26.6667px;line-height:1.25;font-family:'Noto Sans';-inkscape-font-specification:'Noto Sans';text-align:end;letter-spacing:0px;word-spacing:0px;text-anchor:end;stroke:#000000;stroke-opacity:1"
       x="16.504854"
       y="42.718449"
       id="text3606"><tspan
         sodipodi:role="line"
         id="tspan3604" /></text>
    <text
       xml:space="preserve"
       style="font-size:24px;line-height:1.25;font-family:'Noto Sans';-inkscape-font-specification:'Noto Sans';text-align:end;letter-spacing:0px;word-spacing:0px;text-anchor:end;fill:#ff4040;fill-opacity:1;stroke:#000000;stroke-width:0.666667;stroke-dasharray:none;stroke-opacity:1"
       x="170.82541"
       y="36.918972"
       id="text3614"><tspan
         sodipodi:role="line"
         id="tspan3612"
         x="170.82541"
         y="36.918972">Programming</tspan><tspan
         sodipodi:role="line"
         x="170.82541"
         y="66.918968"
         id="tspan3616">languages</tspan></text>
    <text
       xml:space="preserve"
       style="font-size:26.6667px;line-height:1.25;font-family:'Noto Sans';-inkscape-font-specification:'Noto Sans';text-align:end;letter-spacing:0px;word-spacing:0px;text-anchor:end;fill:#39e539;fill-opacity:1;stroke:#000000;stroke-width:0.666667;stroke-dasharray:none;stroke-opacity:1"
       x="170.9454"
       y="285.16696"
       id="text3620"><tspan
         sodipodi:role="line"
         id="tspan3618"
         x="170.94542"
         y="285.16696">Interchange</tspan><tspan
         sodipodi:role="line"
         x="170.9454"
         y="318.50034"
         id="tspan3622">IRs</tspan></text>
    <text
       xml:space="preserve"
       style="font-size:26.6667px;line-height:1.25;font-family:'Noto Sans';-inkscape-font-specification:'Noto Sans';text-align:end;letter-spacing:0px;word-spacing:0px;text-anchor:end;fill:#409eff;fill-opacity:1;stroke:#000000;stroke-width:0.666667;stroke-dasharray:none;stroke-opacity:1"
       x="170.07875"
       y="510.23624"
       id="text3626"><tspan
         sodipodi:role="line"
         id="tspan3624"
         x="170.07875"
         y="510.23624">Compiler</tspan><tspan
         sodipodi:role="line"
         x="170.07875"
         y="543.56958"
         id="tspan3628">IRs</tspan></text>
  </g>
</svg>
